<mxfile host="app.diagrams.net" modified="2023-07-29T03:21:48.793Z" agent="Mozilla/5.0 (Windows NT 10.0; Win64; x64) AppleWebKit/537.36 (KHTML, like Gecko) Chrome/115.0.0.0 Safari/537.36" version="21.6.5" etag="VVKiklLAxhjal1Jh8Gh1" type="github">
  <diagram name="第 1 页" id="uApDWOvrD43TBxGBNkEZ">
    <mxGraphModel>
      <root>
        <mxCell id="0" />
        <mxCell id="1" parent="0" />
      </root>
    </mxGraphModel>
  </diagram>
</mxfile>
